<?xml version="1.0" encoding="UTF-8"?>
<svg version="1.1" xmlns="http://www.w3.org/2000/svg" width="944" height="522">
<path d="M0 0 C311.52 0 623.04 0 944 0 C944 172.26 944 344.52 944 522 C632.48 522 320.96 522 0 522 C0 349.74 0 177.48 0 0 Z " fill="#030300" transform="translate(0,0)"/>
<path d="M0 0 C153.45 0 306.9 0 465 0 C465 172.26 465 344.52 465 522 C311.55 522 158.1 522 0 522 C0 349.74 0 177.48 0 0 Z " fill="#FCD609" transform="translate(479,0)"/>
<path d="M0 0 C0.99080566 0.18224121 1.98161133 0.36448242 3.00244141 0.55224609 C19.63107371 3.70817964 35.50212375 8.15166485 51 15 C52.34589567 15.57009407 53.69228408 16.13902573 55.0390625 16.70703125 C84.59288165 29.31604622 110.59379275 47.11116067 134 69 C136.63942974 71.38376874 139.28900193 73.75569302 141.94140625 76.125 C142.96041016 77.053125 142.96041016 77.053125 144 78 C144.58523438 78.53238281 145.17046875 79.06476563 145.7734375 79.61328125 C147 81 147 81 147.0625 83.1875 C144.86826583 88.99576693 140.97393567 93.21460687 136.32568359 97.22314453 C125.88431479 106.30574584 115.98152501 115.927651 106.30078125 125.8125 C105.48245819 126.64571777 104.66413513 127.47893555 103.8210144 128.33740234 C100.4500671 131.7714958 97.0805809 135.20654181 93.73364258 138.6640625 C91.24871366 141.22719922 88.7454928 143.77118179 86.23828125 146.3125 C85.10547478 147.49646362 85.10547478 147.49646362 83.94978333 148.7043457 C83.24101547 149.41679443 82.53224762 150.12924316 81.80200195 150.86328125 C80.87844658 151.81134644 80.87844658 151.81134644 79.93623352 152.77856445 C78 154 78 154 75.37101746 153.76220703 C68.53260537 151.56387409 64.32412325 145.00052763 60.08203125 139.57421875 C43.26580647 118.78267629 16.72635425 104.59716031 -8.6875 97.375 C-9.3563623 97.18107666 -10.02522461 96.98715332 -10.71435547 96.78735352 C-24.66300458 92.97657354 -38.51623168 91.35550873 -52.9375 91.375 C-53.73349609 91.37353973 -54.52949219 91.37207947 -55.34960938 91.37057495 C-74.9341065 91.41966319 -94.45734542 94.85902855 -111 106 C-111.76957031 106.48082031 -112.53914062 106.96164063 -113.33203125 107.45703125 C-120.32752897 112.16828482 -124.84577507 118.86290492 -127 127 C-127.31549715 129.8183944 -127.36998814 132.60329055 -127.375 135.4375 C-127.39949219 136.16259766 -127.42398438 136.88769531 -127.44921875 137.63476562 C-127.47938277 143.23019149 -126.00094894 146.30879326 -123 151 C-123 151.66 -123 152.32 -123 153 C-122.47792969 153.25007812 -121.95585938 153.50015625 -121.41796875 153.7578125 C-118.93875469 155.03146367 -116.53546786 156.41220016 -114.12890625 157.81738281 C-99.26524642 166.47186862 -83.96013156 170.74482849 -67.25 174.625 C-66.53977692 174.7909668 -65.82955383 174.95693359 -65.09780884 175.12792969 C-49.41151437 178.75532015 -33.56345873 181.3568536 -17.6875 184 C30.54320131 192.03646039 30.54320131 192.03646039 48 200 C49.43512232 200.56853886 50.8724541 201.13155008 52.3125 201.6875 C83.33806658 214.10717125 117.07184216 232.54038141 135 262 C135.65484375 263.06863281 136.3096875 264.13726562 136.984375 265.23828125 C155.96821029 296.93462598 156.70744199 331.31017413 148.08984375 366.7421875 C144.44572054 379.64648526 138.74186501 392.06076097 131 403 C130.33355469 403.95132812 129.66710937 404.90265625 128.98046875 405.8828125 C106.63887805 436.71823317 74.45825218 455.1941697 38.77636719 467.07470703 C36.38696136 467.87103557 34.0091042 468.69299382 31.6328125 469.52734375 C12.54186795 476.06966543 -6.94329966 477.80799919 -27 478 C-28.15060913 478.01129944 -28.15060913 478.01129944 -29.32446289 478.02282715 C-110.61996261 478.77845071 -190.40581312 465.28175031 -251 406 C-261.0383653 395.88490409 -261.0383653 395.88490409 -263 390 C-262.38411263 389.49436523 -262.38411263 389.49436523 -261.75578308 388.97851562 C-254.98331931 383.24328105 -248.85009441 376.88885127 -242.63964272 370.5619812 C-239.15140202 367.01242361 -235.64742853 363.47842674 -232.14648438 359.94140625 C-227.70755 355.45444256 -223.27339352 350.96300562 -218.85424805 346.45654297 C-215.26587714 342.7980889 -211.66317364 339.15431597 -208.05034447 335.52001953 C-206.67857165 334.1346383 -205.31223573 332.74385182 -203.95147133 331.34765625 C-202.05583686 329.40396917 -200.14250528 327.47954771 -198.22387695 325.55859375 C-197.38604927 324.68605202 -197.38604927 324.68605202 -196.53129578 323.79588318 C-192.68356901 319.99797603 -192.68356901 319.99797603 -189.27897644 320.00805664 C-185.52291895 321.64291175 -182.77819766 324.28134219 -181.08203125 328.02734375 C-179.79127527 330.38052703 -178.71987155 330.99815622 -176.375 332.25 C-173.22421181 334.10439949 -170.82628335 336.03495154 -168.3125 338.6875 C-146.84337946 360.86393653 -115.76702642 373.20244302 -86 379 C-85.23445801 379.15243164 -84.46891602 379.30486328 -83.68017578 379.46191406 C-69.81223129 382.08000103 -55.87942091 382.33757945 -41.8125 382.4375 C-40.49259567 382.45568787 -40.49259567 382.45568787 -39.14602661 382.47424316 C-21.49043475 382.680686 -4.15885046 380.53014416 12 373 C12.62277832 372.71108887 13.24555664 372.42217773 13.88720703 372.12451172 C21.92189678 368.32876591 28.90343035 364.54746779 34 357 C34.61875 356.0925 35.2375 355.185 35.875 354.25 C39.5283381 346.94332379 38.91321227 336.9645129 36.8671875 329.21484375 C32.09580411 317.02847265 21.99800513 310.57341285 10.53881836 305.54370117 C-0.79012283 300.7961181 -12.33247717 297.45889514 -24.27587891 294.65356445 C-26.10124926 294.21562607 -27.92143873 293.75553834 -29.73583984 293.27416992 C-37.76494747 291.154063 -45.83962088 289.7520938 -54.03012085 288.43927002 C-57.24351431 287.92294903 -60.45445739 287.39208576 -63.66563416 286.86218262 C-66.03129833 286.47192424 -68.39718777 286.08306644 -70.76318359 285.69482422 C-71.49132263 285.5753241 -72.21946167 285.45582397 -72.96966553 285.33270264 C-74.73955791 285.04267758 -76.50965419 284.75389737 -78.27978516 284.46533203 C-108.49488101 279.49002874 -138.36875922 272.29680942 -166.0625 259.0625 C-166.67065552 258.77348816 -167.27881104 258.48447632 -167.90539551 258.18670654 C-184.38694976 250.29714815 -198.35714395 239.81369613 -211.58056641 227.32275391 C-212.84743509 226.14217349 -214.14638064 224.99623131 -215.44921875 223.85546875 C-232.61838794 208.18448186 -241.64437806 179.53836755 -243.21289062 156.93164062 C-244.18905202 130.37674168 -240.37726173 107.93512047 -229 84 C-228.53980469 83.02417969 -228.07960938 82.04835938 -227.60546875 81.04296875 C-211.47276736 49.28897725 -180.04600959 29.04620214 -149 14.0625 C-147.8709021 13.51384277 -147.8709021 13.51384277 -146.71899414 12.95410156 C-141.27688239 10.39381222 -135.77662721 8.64135808 -130 7 C-128.7728125 6.60039063 -127.545625 6.20078125 -126.28125 5.7890625 C-87.00177942 -6.30317121 -40.25585387 -7.50167154 0 0 Z " fill="#030300" transform="translate(772,29)"/>
<path d="M0 0 C0.75518921 -0.00040283 1.51037842 -0.00080566 2.28845215 -0.0012207 C30.12700723 0.08359498 56.58416804 8.0746249 80.9375 21.4375 C82.17175683 22.09267058 83.4061316 22.74761903 84.640625 23.40234375 C92.4431274 27.61600903 99.36363483 32.45883613 105.9375 38.4375 C106.54787109 38.98809082 107.15824219 39.53868164 107.78710938 40.10595703 C109.77807431 41.92150872 111.73618713 43.76695559 113.6875 45.625 C114.32107422 46.20717285 114.95464844 46.7893457 115.60742188 47.38916016 C119.83340706 51.52916515 119.83340706 51.52916515 120.265625 55.30078125 C116.61097589 63.93220253 108.97925912 70.74753349 102.49609375 77.3203125 C101.61019058 78.21998749 100.72428741 79.11966248 99.8115387 80.04660034 C97.95120145 81.93006257 96.08795148 83.81065191 94.22192383 85.68847656 C91.83373386 88.09338222 89.46728851 90.51860065 87.10481167 92.94873238 C84.83378471 95.27517635 82.53828737 97.57725009 80.24609375 99.8828125 C79.40219589 100.75656525 78.55829803 101.63031799 77.68882751 102.5305481 C76.89102371 103.32242523 76.09321991 104.11430237 75.27124023 104.93017578 C74.57731674 105.63361115 73.88339325 106.33704651 73.16844177 107.0617981 C70.9375 108.4375 70.9375 108.4375 67.77388 108.23718262 C64.81601423 107.40324857 63.79281122 106.83178017 61.859375 104.5234375 C61.34358887 103.93046875 60.82780273 103.3375 60.29638672 102.7265625 C59.7654541 102.09492188 59.23452148 101.46328125 58.6875 100.8125 C53.59014202 95.05165794 48.61366315 90.36714033 41.9375 86.4375 C41.0196875 85.89609375 40.101875 85.3546875 39.15625 84.796875 C28.9595469 79.02621335 21.45624862 76.94563229 9.75 77.0625 C8.60724609 77.05089844 7.46449219 77.03929687 6.28710938 77.02734375 C-12.18852321 77.09000842 -27.15192031 83.34397716 -41.0625 95.4375 C-54.85059827 109.37965523 -58.37582244 129.14309446 -58.5 147.9375 C-58.51015137 149.03537842 -58.52030273 150.13325684 -58.53076172 151.2644043 C-58.45925659 157.87359337 -57.66264318 163.35488061 -55.0625 169.4375 C-54.77640869 170.1082959 -54.49031738 170.7790918 -54.19555664 171.47021484 C-50.23517897 180.2986693 -45.73173981 188.34583233 -39.0625 195.4375 C-38.42183594 196.13101563 -37.78117187 196.82453125 -37.12109375 197.5390625 C-30.97975027 203.57552535 -23.55757394 207.13969032 -15.79003906 210.65283203 C-14.41501794 211.27738233 -13.06228488 211.95094376 -11.71875 212.640625 C4.39280841 217.47409252 24.34869554 212.75477726 38.875 205.25 C50.59579221 198.82008175 58.72538591 189.76379665 66.9375 179.4375 C71.69733227 181.62473146 75.09206164 184.93387839 78.9375 188.4375 C79.41928711 188.87416992 79.90107422 189.31083984 80.39746094 189.76074219 C87.26868353 195.99677368 93.93002537 202.38027172 100.44921875 208.984375 C102.58919308 211.09411422 104.76790802 213.06294799 107.0625 215 C119.06505906 225.38395669 119.06505906 225.38395669 120.9375 231.9375 C116.35051374 247.9919519 99.07634578 258.44202181 85.35351562 266.13085938 C70.04567078 274.40971806 54.27440555 281.15456903 37.1875 284.6875 C35.95813721 284.94418457 34.72877441 285.20086914 33.4621582 285.46533203 C24.95547639 287.17574129 16.78441791 288.37845667 8.10351562 288.40966797 C5.70427161 288.44049685 3.31795305 288.56546319 0.921875 288.69140625 C-22.74247983 289.64503175 -47.25569883 284.56259523 -69.0625 275.4375 C-70.26390625 274.94378906 -71.4653125 274.45007813 -72.703125 273.94140625 C-84.57044679 268.75296817 -95.24177408 261.85069517 -105.0625 253.4375 C-106.31160156 252.38949219 -106.31160156 252.38949219 -107.5859375 251.3203125 C-113.85091348 245.90351788 -119.0405702 240.00993986 -124.0625 233.4375 C-124.86558594 232.42300781 -125.66867188 231.40851563 -126.49609375 230.36328125 C-147.85893676 202.6296511 -155.36242688 168.72731026 -154.0625 134.4375 C-154.0305957 133.57979004 -153.99869141 132.72208008 -153.96582031 131.83837891 C-152.68531776 104.80007503 -141.25241899 79.79377532 -125.0625 58.4375 C-124.41925781 57.57253906 -123.77601562 56.70757812 -123.11328125 55.81640625 C-107.04357701 34.92253117 -84.13169344 18.25899431 -58.9296875 10.37109375 C-56.23642514 9.4941323 -53.66948611 8.47859636 -51.0625 7.375 C-34.94645557 0.86217698 -17.20009892 -0.0095689 0 0 Z " fill="#FCFBFB" transform="translate(232.0625,123.5625)"/>
</svg>
